<svg xmlns="http://www.w3.org/2000/svg" version="1.1" xmlns:xlink="http://www.w3.org/1999/xlink" xmlns:svgjs="http://svgjs.dev/svgjs" width="1000" height="1125" viewBox="0 0 1000 1125"><g transform="matrix(1,0,0,1,1.7053025658242404e-13,0)"><svg viewBox="0 0 320 360" data-background-color="#ffffff" preserveAspectRatio="xMidYMid meet" height="1125" width="1000" xmlns="http://www.w3.org/2000/svg" xmlns:xlink="http://www.w3.org/1999/xlink"><g id="tight-bounds" transform="matrix(1,0,0,1,0,0)"><svg viewBox="0 0 320 360" height="360" width="320"><g><svg></svg></g><g><svg viewBox="0 0 320 360" height="360" width="320"><g><path xmlns="http://www.w3.org/2000/svg" d="M20.961 227.22l3.726 4.658-1.863-6.056c-0.466-2.795-3.726 0.466-1.863 1.398M25.153 224.425c1.397 2.329 2.795 4.658 2.795 6.987 0 3.261 2.795 4.658 5.123 5.589-3.261-3.726-5.124-13.974-7.918-12.576M204.017 26.929c7.918 0 15.371-0.932 23.756 0.931 20.495 5.124 37.729 15.371 49.374 29.811l32.606 52.169c1.397 13.042 4.192 27.482 3.726 43.319 3.261 0 2.795-4.658 6.521-5.59-3.726 9.316-5.59 20.961-6.521 34.469-2.329-7.453 0-18.632 0.466-24.687-3.261 5.124-5.124 1.397-5.124-0.932 0.466-3.726-1.397-3.261-2.795-4.658-5.124-4.658-8.384-9.782-12.11-17.7 2.329-6.055 2.795-14.905-4.658-19.563-2.329-1.397-5.124-3.726-6.521-7.453-1.863-5.124-5.124-11.179-4.193-19.097 0.466-2.329-6.987 5.124-11.179 1.863-18.166-12.576-36.332-27.016-58.224-39.127-11.645 0-20.029-4.192-24.221-9.316-3.726-4.658-0.932-10.713 4.658-11.179 3.261 0 6.987-0.932 9.782 0.932 0.466-1.863 2.329-4.192 4.657-4.192M157.904 16.215l0.932 0.466c4.658 0.932 6.987 7.453 12.11 5.124 0 3.261 0.466 6.521-0.466 8.85-1.397 3.726-5.59 3.726-8.85 3.726-31.208-1.863-49.374 11.179-68.471 22.358-5.124 3.261-10.713 5.59-14.906 9.782-20.029 18.632-41.921 35.866-47.045 70.335l-4.192 38.195c-0.466 4.192-5.124 8.384-4.192 13.508l3.26 22.824c-3.261-3.261-5.124 0.932-4.192 2.795 0.466 1.397 2.329 6.055 5.124 1.863 3.726 6.987 7.453 20.495 12.576 26.55 15.837 18.632 36.332 35.4 53.101 52.169 4.192-0.932 7.453-0.932 8.384-3.727 1.397 2.795-1.397 5.59-3.726 6.056 7.453 4.658 15.837 8.85 27.016 9.781 14.44 0.932 27.948 3.261 40.524 6.522 6.521-1.863 13.042-2.795 20.029-3.261 2.329 0 3.726-3.726 6.521-4.658l0.466-4.658c2.795 4.192 2.329-1.397 0.466-4.192 3.261 2.795 4.192 5.124 5.589 6.987 0-1.397 3.726-6.521 3.727-0.466l0.931-6.055c1.397-0.932 1.863 5.124 3.261 0.931 1.397-4.192 4.192-0.932 6.987-2.329-0.932 1.863-0.466 5.59 2.794 3.261l3.727-3.261c2.329 5.59 6.055 3.261 7.918 2.329 20.495-13.042 40.99-28.413 60.553-43.784l-0.466 6.055 2.329-7.453c2.329 2.329 4.192 0.466 5.124-0.931 2.795-4.658 6.521-9.316 12.577-13.508-7.453 20.029-16.303 35.866-27.482 48.908l-4.658 5.59c0 3.261-0.932 7.453-4.658 7.918-1.863 0.466-5.59-0.932-8.384 1.863-1.397 1.863 3.261 5.59-0.466 2.795-3.261-2.329-6.521 0-10.248 0.932-2.795 0.932 1.863 3.726 2.795 5.589 0.932 1.863 1.863 3.726 1.398 6.056l-5.124-5.59c-6.055 3.261-9.782 9.316-14.906 13.974-2.329 1.863-1.397 5.124-1.397 7.918-3.261 0-6.987-0.932-8.85 0.932-1.397 1.863-0.932 4.658-0.932 7.453-4.658-0.466-5.124-7.453-9.315-6.056-4.192 0.932-8.85 1.397-12.577 3.727 2.795 5.59-4.658 2.329-3.726 3.26-6.987-4.192-13.042-7.453-20.495-4.658-15.837-5.124-35.4-2.795-49.84-0.931 0-2.329 0.466-4.658-0.466-5.124-0.932 2.329-3.726 1.397-3.26 1.397-8.85-6.055-17.7-9.782-27.016-14.905-8.384 0.932-16.303-3.261-18.632-5.59-6.521-6.055-13.974-2.795-20.029-4.192-13.042-3.261-17.7-16.769-19.098-26.084-0.932-4.658-4.658-6.521-6.055-6.056-6.055-19.563-15.371-37.263-22.824-55.429-1.863-4.658-1.397-9.316-1.397-14.44 2.329 0.932 4.658 0.466 4.192-2.794-2.329-15.371-7.918-27.016-13.974-38.195 3.261-15.837 3.726-34.469 11.179-48.443 6.521-12.576 18.632-19.098 27.016-29.811 2.795-3.726 2.795-8.85 5.59-12.11 9.316-9.316 18.632-19.098 28.879-27.482 4.658-3.726 10.247 0 17.234-1.397 2.329-8.384 11.645-15.837 20.495-13.508 3.726 0.932 11.179-8.85 13.508-9.782 3.726-1.397 1.863 3.726 1.863 6.987 8.85-6.987 20.961-10.713 32.14-14.906" fill="#ba3b0a" fill-rule="nonzero" stroke="none" stroke-width="1" stroke-linecap="butt" stroke-linejoin="miter" stroke-miterlimit="10" stroke-dasharray="" stroke-dashoffset="0" font-family="none" font-weight="none" font-size="none" text-anchor="none" style="mix-blend-mode: normal" data-fill-palette-color="tertiary"></path></g><g transform="matrix(1,0,0,1,64,94.81453026474442)"><svg viewBox="0 0 192 170.37093947051116" height="170.37093947051116" width="192"><g><svg viewBox="0 0 192 170.37093947051116" height="170.37093947051116" width="192"><g><svg viewBox="0 0 192 170.37093947051116" height="170.37093947051116" width="192"><g transform="matrix(1,0,0,1,0,117.44302334993449)"><svg viewBox="0 0 192 52.927916120576675" height="52.927916120576675" width="192"><g id="textblocktransform"><svg viewBox="0 0 192 52.927916120576675" height="52.927916120576675" width="192" id="textblock"><g><svg viewBox="0 0 192 52.927916120576675" height="52.927916120576675" width="192"><g transform="matrix(1,0,0,1,0,0)"><svg width="192" viewBox="3.559999942779541 -35.54999923706055 167.63999938964844 46.220001220703125" height="52.927916120576675" data-palette-color="#ba3b0a"><path d="M16.97-15.97L7.96-15.97 7.91-20.56 15.77-20.56Q18.73-20.56 20.34-21.85 21.95-23.14 21.95-25.51L21.95-25.51Q21.95-28.13 20.42-29.3 18.9-30.47 15.7-30.47L15.7-30.47 9.86-30.47 9.86 0 3.56 0 3.56-35.55 15.7-35.55Q21.58-35.55 24.91-33.22 28.25-30.88 28.25-25.93L28.25-25.93Q28.25-23.73 27.19-21.9 26.12-20.07 24.05-18.92 21.97-17.77 18.87-17.58L18.87-17.58 16.97-15.97ZM16.7 0L5.96 0 8.81-5.05 16.7-5.05Q19.73-5.05 21.26-6.54 22.8-8.03 22.8-10.4L22.8-10.4Q22.8-12.13 22.19-13.38 21.58-14.62 20.31-15.3 19.04-15.97 16.97-15.97L16.97-15.97 10.03-15.97 10.08-20.56 19.07-20.56 20.48-18.8Q23.44-18.75 25.33-17.55 27.22-16.36 28.15-14.47 29.08-12.57 29.08-10.38L29.08-10.38Q29.08-5.27 25.79-2.64 22.51 0 16.7 0L16.7 0ZM33.49-12.94L33.49-13.45Q33.49-17.31 34.96-20.34 36.42-23.36 39.17-25.13 41.92-26.9 45.77-26.9L45.77-26.9Q49.68-26.9 52.44-25.13 55.2-23.36 56.65-20.34 58.1-17.31 58.1-13.45L58.1-13.45 58.1-12.94Q58.1-9.11 56.65-6.07 55.2-3.03 52.45-1.27 49.7 0.49 45.82 0.49L45.82 0.49Q41.94 0.49 39.18-1.27 36.42-3.03 34.96-6.07 33.49-9.11 33.49-12.94L33.49-12.94ZM39.55-13.45L39.55-12.94Q39.55-10.6 40.21-8.65 40.87-6.71 42.25-5.54 43.63-4.37 45.82-4.37L45.82-4.37Q48-4.37 49.37-5.54 50.75-6.71 51.4-8.65 52.05-10.6 52.05-12.94L52.05-12.94 52.05-13.45Q52.05-15.77 51.4-17.72 50.75-19.68 49.36-20.86 47.97-22.05 45.77-22.05L45.77-22.05Q43.6-22.05 42.22-20.86 40.84-19.68 40.2-17.72 39.55-15.77 39.55-13.45L39.55-13.45ZM70.65-2.91L77.75-26.42 84.22-26.42 73.65 4Q73.29 5 72.7 6.15 72.11 7.3 71.17 8.33 70.23 9.35 68.83 10.01 67.43 10.67 65.45 10.67L65.45 10.67Q64.91 10.67 64.41 10.61 63.91 10.55 63.45 10.45 62.98 10.35 62.54 10.23L62.54 10.23 62.54 5.57Q62.79 5.59 63.13 5.62 63.47 5.64 63.69 5.64L63.69 5.64Q65.86 5.64 66.99 4.86 68.11 4.08 68.72 2.2L68.72 2.2 70.65-2.91ZM66.82-26.42L72.94-6.86 74.02-0.32 69.82 0.63 60.27-26.42 66.82-26.42ZM102.34-5.42L102.34-17.85Q102.34-19.9 101.2-21.12 100.07-22.34 97.77-22.34L97.77-22.34Q96.4-22.34 95.38-21.86 94.35-21.39 93.79-20.58 93.23-19.78 93.23-18.75L93.23-18.75 87.18-18.75Q87.18-20.87 88.52-22.74 89.86-24.61 92.31-25.76 94.77-26.9 98.11-26.9L98.11-26.9Q101.09-26.9 103.41-25.9 105.73-24.9 107.06-22.88 108.39-20.85 108.39-17.8L108.39-17.8 108.39-6.15Q108.39-4.3 108.66-2.88 108.93-1.46 109.42-0.42L109.42-0.42 109.42 0 103.22 0Q102.8-0.95 102.57-2.47 102.34-3.98 102.34-5.42L102.34-5.42ZM103.22-16.09L103.26-12.35 99.11-12.35Q95.89-12.35 94.27-11.17 92.64-9.99 92.64-7.96L92.64-7.96Q92.64-6.4 93.72-5.36 94.79-4.32 96.75-4.32L96.75-4.32Q98.53-4.32 99.86-5.04 101.19-5.76 101.95-6.82 102.7-7.89 102.73-8.81L102.73-8.81 104.66-6.1Q104.36-5.1 103.67-3.97 102.97-2.83 101.84-1.82 100.7-0.81 99.15-0.16 97.6 0.49 95.55 0.49L95.55 0.49Q92.96 0.49 90.93-0.54 88.91-1.56 87.75-3.36 86.59-5.15 86.59-7.4L86.59-7.4Q86.59-11.6 89.74-13.84 92.89-16.09 98.67-16.09L98.67-16.09 103.22-16.09ZM120.47-20.78L120.47 0 114.42 0 114.42-26.42 120.11-26.42 120.47-20.78ZM119.4-14.16L117.45-14.14Q117.47-17.97 118.79-20.84 120.11-23.71 122.48-25.31 124.84-26.9 127.99-26.9L127.99-26.9Q130.56-26.9 132.44-25.94 134.32-24.98 135.37-22.81 136.42-20.65 136.42-17.02L136.42-17.02 136.42 0 130.34 0 130.34-17.07Q130.34-18.9 129.81-19.97 129.29-21.04 128.25-21.5 127.21-21.95 125.72-21.95L125.72-21.95Q124.21-21.95 123.05-21.35 121.89-20.75 121.07-19.68 120.25-18.6 119.83-17.19 119.4-15.77 119.4-14.16L119.4-14.16ZM149.21-35.55L149.21 0 142.91 0 142.91-35.55 149.21-35.55ZM170.54-35.55L156.19-18.33 147.94-9.59 146.84-15.89 152.65-23.22 162.85-35.55 170.54-35.55ZM163.71 0L152.21-16.72 156.55-21.02 171.2 0 163.71 0Z" opacity="1" transform="matrix(1,0,0,1,0,0)" fill="#ba3b0a" class="undefined-text-0" data-fill-palette-color="primary" id="text-0"></path></svg></g></svg></g></svg></g></svg></g><g transform="matrix(1,0,0,1,43.472077467873774,0)"><svg viewBox="0 0 105.05584506425245 109.71957011795546" height="109.71957011795546" width="105.05584506425245"><g><svg xmlns="http://www.w3.org/2000/svg" data-name="Layer 1" viewBox="2.690000057220459 0.6000000238418579 94.61000061035156 98.81000518798828" x="0" y="0" height="109.71957011795546" width="105.05584506425245" class="icon-icon-0" data-fill-palette-color="accent" id="icon-0"><path d="M58.79 29.61c0.12-1.29 0.18-2.41 0.18-3a9 9 0 0 0-18 0c0 0.62 0.06 1.74 0.18 3H24V24.93A3 3 0 0 1 26.5 22l3.89-0.68a20.2 20.2 0 0 1 2-4.85l-2.27-3.24a3 3 0 0 1 0.33-3.84L32.8 7a3 3 0 0 1 3.84-0.33L39.87 9a20.19 20.19 0 0 1 4.85-2l0.68-3.89A3 3 0 0 1 48.35 0.6h3.3A3 3 0 0 1 54.6 3.08L55.28 7a20.14 20.14 0 0 1 4.85 2l3.24-2.27A3 3 0 0 1 67.2 7l2.33 2.33a3 3 0 0 1 0.33 3.84L67.6 16.45a20.13 20.13 0 0 1 2 4.85L73.5 22A3 3 0 0 1 76 24.93v4.68ZM2.69 90.71V86a1 1 0 0 1 1-1H9.23V43.39a8 8 0 0 1 8-8H82.81a8 8 0 0 1 8 8V85H96.3a1 1 0 0 1 1 1v4.72a8.7 8.7 0 0 1-8.69 8.69H11.38A8.7 8.7 0 0 1 2.69 90.71Zm18-5.73H39.62a1.86 1.86 0 0 1 1.86 1.86v1.22a2 2 0 0 0 2 2H56.56a2 2 0 0 0 2-2V86.84A1.86 1.86 0 0 1 60.38 85H79.28V46.93H20.72Z" fill="#ba3b0a" data-fill-palette-color="accent"></path></svg></g></svg></g><g></g></svg></g></svg></g></svg></g></svg></g><defs></defs></svg><rect width="320" height="360" fill="none" stroke="none" visibility="hidden"></rect></g></svg></g></svg>