<svg xmlns="http://www.w3.org/2000/svg" version="1.1" xmlns:xlink="http://www.w3.org/1999/xlink" xmlns:svgjs="http://svgjs.dev/svgjs" width="1000" height="1125" viewBox="0 0 1000 1125"><g transform="matrix(1,0,0,1,1.7053025658242404e-13,0)"><svg viewBox="0 0 320 360" data-background-color="#ffffff" preserveAspectRatio="xMidYMid meet" height="1125" width="1000" xmlns="http://www.w3.org/2000/svg" xmlns:xlink="http://www.w3.org/1999/xlink"><g id="tight-bounds" transform="matrix(1,0,0,1,0,0)"><svg viewBox="0 0 320 360" height="360" width="320"><g><svg></svg></g><g><svg viewBox="0 0 320 360" height="360" width="320"><g><path xmlns="http://www.w3.org/2000/svg" d="M20.961 227.22l3.726 4.658-1.863-6.056c-0.466-2.795-3.726 0.466-1.863 1.398M25.153 224.425c1.397 2.329 2.795 4.658 2.795 6.987 0 3.261 2.795 4.658 5.123 5.589-3.261-3.726-5.124-13.974-7.918-12.576M204.017 26.929c7.918 0 15.371-0.932 23.756 0.931 20.495 5.124 37.729 15.371 49.374 29.811l32.606 52.169c1.397 13.042 4.192 27.482 3.726 43.319 3.261 0 2.795-4.658 6.521-5.59-3.726 9.316-5.59 20.961-6.521 34.469-2.329-7.453 0-18.632 0.466-24.687-3.261 5.124-5.124 1.397-5.124-0.932 0.466-3.726-1.397-3.261-2.795-4.658-5.124-4.658-8.384-9.782-12.11-17.7 2.329-6.055 2.795-14.905-4.658-19.563-2.329-1.397-5.124-3.726-6.521-7.453-1.863-5.124-5.124-11.179-4.193-19.097 0.466-2.329-6.987 5.124-11.179 1.863-18.166-12.576-36.332-27.016-58.224-39.127-11.645 0-20.029-4.192-24.221-9.316-3.726-4.658-0.932-10.713 4.658-11.179 3.261 0 6.987-0.932 9.782 0.932 0.466-1.863 2.329-4.192 4.657-4.192M157.904 16.215l0.932 0.466c4.658 0.932 6.987 7.453 12.11 5.124 0 3.261 0.466 6.521-0.466 8.85-1.397 3.726-5.59 3.726-8.85 3.726-31.208-1.863-49.374 11.179-68.471 22.358-5.124 3.261-10.713 5.59-14.906 9.782-20.029 18.632-41.921 35.866-47.045 70.335l-4.192 38.195c-0.466 4.192-5.124 8.384-4.192 13.508l3.26 22.824c-3.261-3.261-5.124 0.932-4.192 2.795 0.466 1.397 2.329 6.055 5.124 1.863 3.726 6.987 7.453 20.495 12.576 26.55 15.837 18.632 36.332 35.4 53.101 52.169 4.192-0.932 7.453-0.932 8.384-3.727 1.397 2.795-1.397 5.59-3.726 6.056 7.453 4.658 15.837 8.85 27.016 9.781 14.44 0.932 27.948 3.261 40.524 6.522 6.521-1.863 13.042-2.795 20.029-3.261 2.329 0 3.726-3.726 6.521-4.658l0.466-4.658c2.795 4.192 2.329-1.397 0.466-4.192 3.261 2.795 4.192 5.124 5.589 6.987 0-1.397 3.726-6.521 3.727-0.466l0.931-6.055c1.397-0.932 1.863 5.124 3.261 0.931 1.397-4.192 4.192-0.932 6.987-2.329-0.932 1.863-0.466 5.59 2.794 3.261l3.727-3.261c2.329 5.59 6.055 3.261 7.918 2.329 20.495-13.042 40.99-28.413 60.553-43.784l-0.466 6.055 2.329-7.453c2.329 2.329 4.192 0.466 5.124-0.931 2.795-4.658 6.521-9.316 12.577-13.508-7.453 20.029-16.303 35.866-27.482 48.908l-4.658 5.59c0 3.261-0.932 7.453-4.658 7.918-1.863 0.466-5.59-0.932-8.384 1.863-1.397 1.863 3.261 5.59-0.466 2.795-3.261-2.329-6.521 0-10.248 0.932-2.795 0.932 1.863 3.726 2.795 5.589 0.932 1.863 1.863 3.726 1.398 6.056l-5.124-5.59c-6.055 3.261-9.782 9.316-14.906 13.974-2.329 1.863-1.397 5.124-1.397 7.918-3.261 0-6.987-0.932-8.85 0.932-1.397 1.863-0.932 4.658-0.932 7.453-4.658-0.466-5.124-7.453-9.315-6.056-4.192 0.932-8.85 1.397-12.577 3.727 2.795 5.59-4.658 2.329-3.726 3.26-6.987-4.192-13.042-7.453-20.495-4.658-15.837-5.124-35.4-2.795-49.84-0.931 0-2.329 0.466-4.658-0.466-5.124-0.932 2.329-3.726 1.397-3.26 1.397-8.85-6.055-17.7-9.782-27.016-14.905-8.384 0.932-16.303-3.261-18.632-5.59-6.521-6.055-13.974-2.795-20.029-4.192-13.042-3.261-17.7-16.769-19.098-26.084-0.932-4.658-4.658-6.521-6.055-6.056-6.055-19.563-15.371-37.263-22.824-55.429-1.863-4.658-1.397-9.316-1.397-14.44 2.329 0.932 4.658 0.466 4.192-2.794-2.329-15.371-7.918-27.016-13.974-38.195 3.261-15.837 3.726-34.469 11.179-48.443 6.521-12.576 18.632-19.098 27.016-29.811 2.795-3.726 2.795-8.85 5.59-12.11 9.316-9.316 18.632-19.098 28.879-27.482 4.658-3.726 10.247 0 17.234-1.397 2.329-8.384 11.645-15.837 20.495-13.508 3.726 0.932 11.179-8.85 13.508-9.782 3.726-1.397 1.863 3.726 1.863 6.987 8.85-6.987 20.961-10.713 32.14-14.906" fill="#a437db" fill-rule="nonzero" stroke="none" stroke-width="1" stroke-linecap="butt" stroke-linejoin="miter" stroke-miterlimit="10" stroke-dasharray="" stroke-dashoffset="0" font-family="none" font-weight="none" font-size="none" text-anchor="none" style="mix-blend-mode: normal" data-fill-palette-color="tertiary"></path></g><g transform="matrix(1,0,0,1,64,102.93446543298751)"><svg viewBox="0 0 192 154.13106913402498" height="154.13106913402498" width="192"><g><svg viewBox="0 0 192 154.13106913402498" height="154.13106913402498" width="192"><g><svg viewBox="0 0 192 154.13106913402498" height="154.13106913402498" width="192"><g transform="matrix(1,0,0,1,0,72.17293711513275)"><svg viewBox="0 0 192 81.95813201889221" height="81.95813201889221" width="192"><g id="textblocktransform"><svg viewBox="0 0 192 81.95813201889221" height="81.95813201889221" width="192" id="textblock"><g><svg viewBox="0 0 192 53.64018892228424" height="53.64018892228424" width="192"><g transform="matrix(1,0,0,1,0,0)"><svg width="192" viewBox="7.079999923706055 -34.689998626708984 170.5699920654297 47.64999771118164" height="53.64018892228424" data-palette-color="#a437db"><path d="M17.92-31.52L11.23-31.52 11.23-19.87Q11.69-19.9 12.84-19.91 13.99-19.92 14.62-19.93 15.26-19.95 16.41-20.03 17.55-20.12 18.25-20.23 18.95-20.34 19.93-20.57 20.92-20.8 21.55-21.11 22.17-21.41 22.86-21.89 23.56-22.36 23.95-22.95 24.34-23.54 24.6-24.35 24.85-25.17 24.85-26.15L24.85-26.15Q24.85-26.88 24.71-27.54 24.56-28.2 24.1-28.96 23.63-29.71 22.9-30.25 22.17-30.79 20.89-31.15 19.6-31.52 17.92-31.52L17.92-31.52ZM11.23-16.65L11.23-16.65 11.23-3.66 17.7-3.66Q18.58-3.66 19.18-3.67 19.78-3.69 20.9-3.82 22.02-3.96 22.81-4.19 23.61-4.42 24.58-4.9 25.56-5.37 26.16-6.03 26.76-6.69 27.17-7.73 27.59-8.76 27.59-10.08L27.59-10.08Q27.59-13.33 25.07-15.16 22.56-16.99 18.31-16.99L18.31-16.99Q17.85-16.99 11.23-16.65ZM7.08 0L7.08-34.69 19.31-34.69Q21.09-34.69 22.57-34.31 24.05-33.94 25.01-33.35 25.98-32.76 26.72-31.96 27.47-31.15 27.86-30.4 28.25-29.64 28.49-28.78 28.74-27.93 28.8-27.38 28.86-26.83 28.86-26.34L28.86-26.34Q28.86-24.22 27.42-22.11 25.98-20 24.37-19.38L24.37-19.38Q27.59-18.8 29.65-16.27 31.71-13.75 31.71-10.52L31.71-10.52Q31.71-9.77 31.58-8.94 31.45-8.11 31.05-7.06 30.66-6.01 30.05-5.05 29.44-4.1 28.39-3.16 27.34-2.22 25.99-1.54 24.63-0.85 22.67-0.43 20.7 0 18.36 0L18.36 0 7.08 0ZM49.68-24.58L49.68-24.58Q54.69-24.58 57.92-21.39 61.15-18.19 61.15-12.55L61.15-12.55Q61.15-6.57 57.85-3.04 54.54 0.49 49.29 0.49L49.29 0.49Q44.28 0.49 41.11-2.82 37.94-6.13 37.94-11.79L37.94-11.79Q37.94-17.63 41.17-21.11 44.41-24.58 49.68-24.58ZM49.34-21.17L49.34-21.17Q46.34-21.17 44.09-18.85 41.84-16.53 41.84-12.48L41.84-12.48Q41.84-8.45 44.04-5.69 46.24-2.93 49.73-2.93L49.73-2.93Q52.95-2.93 55.1-5.37 57.25-7.81 57.25-11.74L57.25-11.74Q57.25-13.99 56.55-15.82 55.86-17.65 54.72-18.8 53.59-19.95 52.19-20.56 50.8-21.17 49.34-21.17ZM75.63 1.2L65.55-24.12 69.94-24.12 77.66-3.66 84.83-24.12 88.98-24.12 75.07 12.96 70.8 12.96 75.63 1.2ZM102.58-24.58L102.58-24.58Q105.27-24.58 107.13-23.96 109-23.34 110.01-22.14 111.03-20.95 111.47-19.48 111.91-18.02 111.91-16.11L111.91-16.11 111.91 0 109.07 0 108.15-2.2Q105.19 0.49 101.36 0.49L101.36 0.49Q97.94 0.49 95.57-1.57 93.21-3.64 93.21-6.4L93.21-6.4Q93.21-7.86 93.74-9.03 94.28-10.21 95.29-10.99 96.31-11.77 97.6-12.32 98.89-12.87 100.62-13.16 102.34-13.45 104.07-13.57 105.8-13.7 107.88-13.7L107.88-13.7 107.88-15.6Q107.88-16.43 107.82-17.04 107.76-17.65 107.41-18.51 107.07-19.36 106.49-19.91 105.9-20.46 104.73-20.86 103.56-21.26 101.95-21.26L101.95-21.26Q99.46-21.26 95.5-20.17L95.5-20.17 94.74-23.1Q98.75-24.58 102.58-24.58ZM107.88-5.13L107.88-10.67 106.39-10.67Q105-10.67 103.97-10.62 102.95-10.57 101.57-10.34 100.19-10.11 99.31-9.69 98.43-9.28 97.81-8.48 97.18-7.69 97.18-6.59L97.18-6.59Q97.18-5.05 98.74-3.86 100.29-2.66 102.43-2.66L102.43-2.66Q105.58-2.66 107.88-5.13L107.88-5.13ZM120.69 0L120.69-24.12 123.5-24.12 124.38-22.07Q129.04-24.61 132.88-24.61L132.88-24.61Q134.85-24.61 136.32-23.99 137.78-23.36 138.59-22.42 139.39-21.48 139.87-20.06 140.35-18.63 140.48-17.33 140.62-16.04 140.62-14.38L140.62-14.38 140.62 0 136.61 0 136.61-14.65Q136.61-21 131.14-21L131.14-21Q128.31-21 124.7-19.12L124.7-19.12 124.7 0 120.69 0ZM152.09 0L152.09-34.69 156.24-34.69 156.24 0 152.09 0ZM156.82-17.8L171.52-34.69 176.72-34.69 162.05-18.14 177.65 0 172.3 0 156.82-17.8Z" opacity="1" transform="matrix(1,0,0,1,0,0)" fill="#a437db" class="undefined-text-0" data-fill-palette-color="primary" id="text-0"></path></svg></g></svg></g><g transform="matrix(1,0,0,1,0,61.46757985057965)"><svg viewBox="0 0 192 20.490552168312576" height="20.490552168312576" width="192"><g transform="matrix(1,0,0,1,0,0)"><svg width="192" viewBox="0.24000000953674316 -37.9900016784668 362.6000061035156 38.70000076293945" height="20.490552168312576" data-palette-color="#bb84e8"><path d="M50.24-32.79L50.24-37.01 62.26-37.01 62.26-32.79 59.03-32.79 48.46 0 40.99 0 30.96-32.25 21.7 0 14.31 0 3.52-32.79 0.24-32.79 0.24-37.01 12.26-37.01 12.26-32.79 9.03-32.79 17.99-4.35 27.44-37.01 34.74-37.01 44.8-4.35 53.93-32.79 50.24-32.79ZM110.61-12.06L92.4-12.06Q92.4-10.99 92.56-10.1 92.72-9.2 93.01-8.4L93.01-8.4Q93.91-5.96 95.9-4.72 97.89-3.49 100.41-3.49L100.41-3.49Q102.38-3.49 104.25-4.04 106.12-4.59 108.17-5.76L108.17-5.76 110-2.66Q107.51-0.95 105-0.12 102.48 0.71 99.77 0.71L99.77 0.71Q97.21 0.71 95.02-0.15 92.84-1 91.26-2.69 89.69-4.37 88.8-6.88 87.91-9.4 87.91-12.74L87.91-12.74Q87.91-15.45 88.66-17.86 89.42-20.26 90.92-22.06 92.42-23.85 94.64-24.9 96.87-25.95 99.82-25.95L99.82-25.95Q102.68-25.95 104.59-25.09 106.51-24.22 107.72-22.79 108.93-21.36 109.55-19.53 110.17-17.7 110.42-15.8L110.42-15.8Q110.54-14.87 110.57-13.92 110.61-12.96 110.61-12.06L110.61-12.06ZM99.5-22.14L99.5-22.14Q97.92-22.14 96.73-21.69 95.55-21.24 94.72-20.4 93.89-19.56 93.39-18.33 92.89-17.11 92.64-15.6L92.64-15.6 105.75-15.6Q105.65-17.02 105.3-18.21 104.95-19.41 104.21-20.29 103.48-21.17 102.33-21.66 101.19-22.14 99.5-22.14ZM138.9-33.79L138.9-37.99 147.1-37.99 147.1-23.19Q148.71-24.44 150.62-25.17 152.52-25.9 154.55-25.9L154.55-25.9Q157.04-25.9 159.11-24.98 161.19-24.05 162.69-22.36 164.19-20.68 165.02-18.32 165.85-15.97 165.85-13.11L165.85-13.11Q165.85-10.06 164.92-7.58 164-5.1 162.35-3.32 160.7-1.54 158.43-0.57 156.16 0.39 153.45 0.39L153.45 0.39Q151.57 0.39 149.92-0.16 148.27-0.71 147.1-1.59L147.1-1.59 147.1 0 142.56 0 142.56-33.79 138.9-33.79ZM153.35-21.9L153.35-21.9Q151.57-21.9 149.93-21.17 148.3-20.43 147.1-19.19L147.1-19.19 147.1-5.59Q147.88-4.79 149.4-4.16 150.91-3.54 153.2-3.54L153.2-3.54Q154.77-3.54 156.21-4.13 157.65-4.71 158.75-5.9 159.84-7.08 160.5-8.84 161.16-10.6 161.16-12.94L161.16-12.94Q161.16-15.09 160.54-16.75 159.92-18.41 158.86-19.56 157.79-20.7 156.38-21.3 154.96-21.9 153.35-21.9ZM191.26 0Q191.26 0 191.26 0ZM228.84-32.79L228.84-37.01 242.61-37.01Q245.15-37.01 247.45-36.35 249.74-35.69 251.72-34.5 253.7-33.3 255.31-31.63 256.92-29.96 258.06-27.91 259.19-25.85 259.8-23.5 260.41-21.14 260.41-18.6L260.41-18.6Q260.41-16.02 259.8-13.65 259.19-11.28 258.06-9.2 256.92-7.13 255.31-5.43 253.7-3.74 251.72-2.53 249.74-1.32 247.45-0.66 245.15 0 242.61 0L242.61 0 228.84 0 228.84-4.2 232.36-4.2 232.36-32.79 228.84-32.79ZM242.91-32.79L237.15-32.79 237.15-4.2 242.91-4.2Q245.47-4.2 247.73-5.32 249.99-6.45 251.67-8.39 253.36-10.33 254.33-12.95 255.31-15.58 255.31-18.6L255.31-18.6Q255.31-21.58 254.33-24.17 253.36-26.76 251.67-28.67 249.99-30.59 247.73-31.69 245.47-32.79 242.91-32.79L242.91-32.79ZM310.26-12.06L292.04-12.06Q292.04-10.99 292.2-10.1 292.36-9.2 292.65-8.4L292.65-8.4Q293.56-5.96 295.55-4.72 297.54-3.49 300.05-3.49L300.05-3.49Q302.03-3.49 303.9-4.04 305.76-4.59 307.81-5.76L307.81-5.76 309.65-2.66Q307.16-0.95 304.64-0.12 302.13 0.71 299.42 0.71L299.42 0.71Q296.85 0.71 294.67-0.15 292.48-1 290.91-2.69 289.33-4.37 288.44-6.88 287.55-9.4 287.55-12.74L287.55-12.74Q287.55-15.45 288.31-17.86 289.06-20.26 290.57-22.06 292.07-23.85 294.29-24.9 296.51-25.95 299.47-25.95L299.47-25.95Q302.32-25.95 304.24-25.09 306.15-24.22 307.36-22.79 308.57-21.36 309.19-19.53 309.82-17.7 310.06-15.8L310.06-15.8Q310.18-14.87 310.22-13.92 310.26-12.96 310.26-12.06L310.26-12.06ZM299.15-22.14L299.15-22.14Q297.56-22.14 296.38-21.69 295.19-21.24 294.36-20.4 293.53-19.56 293.03-18.33 292.53-17.11 292.29-15.6L292.29-15.6 305.4-15.6Q305.3-17.02 304.95-18.21 304.59-19.41 303.86-20.29 303.13-21.17 301.98-21.66 300.83-22.14 299.15-22.14ZM337.64-21.09L337.64-25.29 346.38-25.29 346.38-21.09 344.01-21.09 350.26-3.66 356.37-21.09 354.83-21.09 354.83-25.29 362.84-25.29 362.84-21.09 360.66-21.09 352.39 0.39 347.89 0.39 339.64-21.09 337.64-21.09Z" opacity="1" transform="matrix(1,0,0,1,0,0)" fill="#bb84e8" class="undefined-text-1" data-fill-palette-color="secondary" id="text-1"></path></svg></g></svg></g></svg></g></svg></g><g transform="matrix(1,0,0,1,36.672,0)"><svg viewBox="0 0 118.656 64.34554618683735" height="64.34554618683735" width="118.656"><g><svg xmlns="http://www.w3.org/2000/svg" data-name="Layer 1" viewBox="13.199999809265137 29.5 72.60000610351562 39.37000274658203" x="0" y="0" height="64.34554618683735" width="118.656" class="icon-icon-0" data-fill-palette-color="accent" id="icon-0"><polygon points="39.6 68.87 42.82 68.87 59.4 29.5 56.18 29.5 39.6 68.87" fill="#bb84e8" data-fill-palette-color="accent"></polygon><polygon points="66 29.5 66 34.14 81.13 49.17 66 64.21 66 68.84 85.8 49.17 66 29.5" fill="#bb84e8" data-fill-palette-color="accent"></polygon><polygon points="33 68.84 33 64.21 17.87 49.17 33 34.14 33 29.5 13.2 49.17 33 68.84" fill="#bb84e8" data-fill-palette-color="accent"></polygon></svg></g></svg></g><g></g></svg></g></svg></g></svg></g></svg></g><defs></defs></svg><rect width="320" height="360" fill="none" stroke="none" visibility="hidden"></rect></g></svg></g></svg>